<svg xmlns="http://www.w3.org/2000/svg" viewBox="0 0 100 100" role="img" aria-label="Danny Automotive rotor mark">
  <rect width="100" height="100" rx="20" fill="#0A0A0C"/>
  <circle cx="46" cy="50" r="30" fill="none" stroke="#3A3A40" stroke-width="2.4"/>
  <circle cx="46" cy="50" r="21" fill="none" stroke="#3A3A40" stroke-width="1.6"/>
  <g stroke="#3A3A40" stroke-width="2.2" stroke-linecap="round">
    <line x1="46" y1="29" x2="46" y2="35.5"/>
    <line x1="64.9" y1="39.5" x2="59.2" y2="42.7"/>
    <line x1="64.9" y1="60.5" x2="59.2" y2="57.3"/>
    <line x1="46" y1="71" x2="46" y2="64.5"/>
    <line x1="27.1" y1="60.5" x2="32.8" y2="57.3"/>
    <line x1="27.1" y1="39.5" x2="32.8" y2="42.7"/>
  </g>
  <circle cx="46" cy="50" r="6.5" fill="#F4EFE6"/>
  <path d="M60 26h16a6 6 0 0 1 6 6v10a6 6 0 0 1-6 6H63l-6 8V38a6 6 0 0 1 3-8z" fill="#E23A2E"/>
  <circle cx="68" cy="36" r="2.6" fill="#0A0A0C"/>
  <circle cx="78" cy="36" r="2.6" fill="#0A0A0C"/>
</svg>
